<svg width="14" height="14" viewBox="0 0 14 14" fill="none" xmlns="http://www.w3.org/2000/svg">
<path d="M3.66634 2.99967H2.99967V0.999674C2.99967 0.822863 2.92944 0.653294 2.80441 0.52827C2.67939 0.403246 2.50982 0.333008 2.33301 0.333008C2.1562 0.333008 1.98663 0.403246 1.8616 0.52827C1.73658 0.653294 1.66634 0.822863 1.66634 0.999674V2.99967H0.999674C0.822863 2.99967 0.653294 3.06991 0.52827 3.19494C0.403246 3.31996 0.333008 3.48953 0.333008 3.66634C0.333008 3.84315 0.403246 4.01272 0.52827 4.13775C0.653294 4.26277 0.822863 4.33301 0.999674 4.33301H3.66634C3.84315 4.33301 4.01272 4.26277 4.13775 4.13775C4.26277 4.01272 4.33301 3.84315 4.33301 3.66634C4.33301 3.48953 4.26277 3.31996 4.13775 3.19494C4.01272 3.06991 3.84315 2.99967 3.66634 2.99967ZM2.33301 5.66634C2.1562 5.66634 1.98663 5.73658 1.8616 5.8616C1.73658 5.98663 1.66634 6.1562 1.66634 6.33301V12.9997C1.66634 13.1765 1.73658 13.3461 1.8616 13.4711C1.98663 13.5961 2.1562 13.6663 2.33301 13.6663C2.50982 13.6663 2.67939 13.5961 2.80441 13.4711C2.92944 13.3461 2.99967 13.1765 2.99967 12.9997V6.33301C2.99967 6.1562 2.92944 5.98663 2.80441 5.8616C2.67939 5.73658 2.50982 5.66634 2.33301 5.66634ZM6.99967 10.9997C6.82286 10.9997 6.65329 11.0699 6.52827 11.1949C6.40325 11.32 6.33301 11.4895 6.33301 11.6663V12.9997C6.33301 13.1765 6.40325 13.3461 6.52827 13.4711C6.65329 13.5961 6.82286 13.6663 6.99967 13.6663C7.17649 13.6663 7.34606 13.5961 7.47108 13.4711C7.5961 13.3461 7.66634 13.1765 7.66634 12.9997V11.6663C7.66634 11.4895 7.5961 11.32 7.47108 11.1949C7.34606 11.0699 7.17649 10.9997 6.99967 10.9997ZM12.9997 5.66634H12.333V0.999674C12.333 0.822863 12.2628 0.653294 12.1377 0.52827C12.0127 0.403246 11.8432 0.333008 11.6663 0.333008C11.4895 0.333008 11.32 0.403246 11.1949 0.52827C11.0699 0.653294 10.9997 0.822863 10.9997 0.999674V5.66634H10.333C10.1562 5.66634 9.98663 5.73658 9.8616 5.8616C9.73658 5.98663 9.66634 6.1562 9.66634 6.33301C9.66634 6.50982 9.73658 6.67939 9.8616 6.80441C9.98663 6.92944 10.1562 6.99967 10.333 6.99967H12.9997C13.1765 6.99967 13.3461 6.92944 13.4711 6.80441C13.5961 6.67939 13.6663 6.50982 13.6663 6.33301C13.6663 6.1562 13.5961 5.98663 13.4711 5.8616C13.3461 5.73658 13.1765 5.66634 12.9997 5.66634ZM11.6663 8.33301C11.4895 8.33301 11.32 8.40325 11.1949 8.52827C11.0699 8.65329 10.9997 8.82286 10.9997 8.99967V12.9997C10.9997 13.1765 11.0699 13.3461 11.1949 13.4711C11.32 13.5961 11.4895 13.6663 11.6663 13.6663C11.8432 13.6663 12.0127 13.5961 12.1377 13.4711C12.2628 13.3461 12.333 13.1765 12.333 12.9997V8.99967C12.333 8.82286 12.2628 8.65329 12.1377 8.52827C12.0127 8.40325 11.8432 8.33301 11.6663 8.33301ZM8.33301 8.33301H7.66634V0.999674C7.66634 0.822863 7.5961 0.653294 7.47108 0.52827C7.34606 0.403246 7.17649 0.333008 6.99967 0.333008C6.82286 0.333008 6.65329 0.403246 6.52827 0.52827C6.40325 0.653294 6.33301 0.822863 6.33301 0.999674V8.33301H5.66634C5.48953 8.33301 5.31996 8.40325 5.19494 8.52827C5.06991 8.65329 4.99967 8.82286 4.99967 8.99967C4.99967 9.17649 5.06991 9.34606 5.19494 9.47108C5.31996 9.5961 5.48953 9.66634 5.66634 9.66634H8.33301C8.50982 9.66634 8.67939 9.5961 8.80441 9.47108C8.92944 9.34606 8.99967 9.17649 8.99967 8.99967C8.99967 8.82286 8.92944 8.65329 8.80441 8.52827C8.67939 8.40325 8.50982 8.33301 8.33301 8.33301Z" fill="currentColor"/>
</svg>
