<svg xmlns="http://www.w3.org/2000/svg" fill="currentColor" viewBox="0 0 24 24">
  <path fill-rule="evenodd" clip-rule="evenodd" d="M12 .297c-6.63 0-12 5.373-12 12 0 5.302 3.438 9.8 8.205 11.385.6.113.82-.258.82-.577 0-.285-.01-1.04-.016-2.04-3.338.724-4.042-1.61-4.042-1.61-.546-1.385-1.333-1.754-1.333-1.754-1.089-.745.084-.729.084-.729 1.205.084 1.84 1.236 1.84 1.236 1.07 1.835 2.806 1.305 3.492.998.108-.775.419-1.305.762-1.605-2.665-.306-5.466-1.333-5.466-5.933 0-1.31.467-2.38 1.235-3.22-.123-.304-.535-1.526.117-3.176 0 0 1.008-.323 3.301 1.23.96-.267 1.98-.4 3-.404 1.02.004 2.04.137 3 .404 2.29-1.554 3.298-1.23 3.298-1.23.654 1.65.242 2.872.12 3.176.77.84 1.234 1.91 1.234 3.22 0 4.61-2.803 5.624-5.475 5.922.431.371.823 1.102.823 2.222 0 1.604-.015 2.896-.015 3.293 0 .32.217.694.825.577 4.765-1.586 8.2-6.084 8.2-11.385 0-6.627-5.373-12-12-12z"/>
</svg>
